# xmcd
#
# Track frame offsets: 
#        150
#        25881
#        45214
#        55749
#        75347
#        96636
#        114623
#        139759
#        153652
#        176483
#        195983
#        215088
#        243273
#
# Disc length: 3531 seconds
#
# Revision: 1
# Processed by: cddbd v1.5.2PL0 Copyright (c) Steve Scherf et al.
# Submitted via: ExactAudioCopy v0.99pb4
#
DISCID=a80dc90d
DTITLE=Various Artist - Break N' Bossa Vol.08 CD2
DYEAR=2008
DGENRE=Jazz
TTITLE0=S-Tone Inc - Beira Do Mar
TTITLE1=Mario Biondi - A Child Runs Free
TTITLE2=Rosalia De Souza - Que Bandeira (Frisina Remix)
TTITLE3=Gerardo Frisina - Inviolatin
TTITLE4=S-Tone Inc - Hangin On The Moon (Frisina Remix)
TTITLE5=Fedreghini and Bianchi - Stay (In Mood)
TTITLE6=Rosalia De Souza - Onde Anda O Meu Amor (Fedreghini and Bianchi 
TTITLE6=Remix)
TTITLE7=Gerardo Frisina - Gosto De Que E Bom
TTITLE8=The Invisible Session - Till The End (The Inverse Cinematic Re
TTITLE8=mix)
TTITLE9=Soulstance - Special One
TTITLE10=The Dining Rooms - Phunky
TTITLE11=The Dining Rooms - Thin Ice (Fedreghini and Bianchi Remix)
TTITLE12=Rosalia De Souza - Rio De Janeiro (Beatfanatic Remix)
EXTD=
EXTT0=
EXTT1=
EXTT2=
EXTT3=
EXTT4=
EXTT5=
EXTT6=
EXTT7=
EXTT8=
EXTT9=
EXTT10=
EXTT11=
EXTT12=
PLAYORDER=
